<?xml version="1.0" encoding="utf-8"?>
<!-- Generator: Adobe Illustrator 22.0.0, SVG Export Plug-In . SVG Version: 6.00 Build 0)  -->
<svg version="1.1" id="Layer_1" xmlns="http://www.w3.org/2000/svg" xmlns:xlink="http://www.w3.org/1999/xlink" x="0px" y="0px"
	 viewBox="0 0 386 820" style="enable-background:new 0 0 386 820;" xml:space="preserve">
<style type="text/css">
	.st0{fill:url(#SVGID_1_);}
	.st1{clip-path:url(#SVGID_3_);fill:url(#SVGID_4_);filter:url(#Adobe_OpacityMaskFilter);}
	.st2{clip-path:url(#SVGID_3_);mask:url(#mask0_61340:2780_1_);}
	.st3{opacity:0.4;}
	.st4{fill:url(#SVGID_5_);}
	.st5{fill:url(#SVGID_6_);}
	.st6{fill:url(#SVGID_7_);}
	.st7{fill:url(#SVGID_8_);}
	.st8{fill:url(#SVGID_9_);}
	.st9{fill:url(#SVGID_10_);}
	.st10{fill:url(#SVGID_11_);}
	.st11{fill:url(#SVGID_12_);}
	.st12{fill:url(#SVGID_13_);}
	.st13{fill:url(#SVGID_14_);}
	.st14{fill:url(#SVGID_15_);}
	.st15{fill:url(#SVGID_16_);}
	.st16{fill:url(#SVGID_17_);}
	.st17{fill:url(#SVGID_18_);}
	.st18{fill:url(#SVGID_19_);}
	.st19{fill:url(#SVGID_20_);}
	.st20{fill:url(#SVGID_21_);}
	.st21{fill:url(#SVGID_22_);}
	.st22{fill:url(#SVGID_23_);}
	.st23{fill:url(#SVGID_24_);}
	.st24{fill:url(#SVGID_25_);}
	.st25{fill:url(#SVGID_26_);}
	.st26{fill:url(#SVGID_27_);}
	.st27{fill:url(#SVGID_28_);}
	.st28{fill:url(#SVGID_29_);}
	.st29{fill:url(#SVGID_30_);}
	.st30{fill:url(#SVGID_31_);}
	.st31{fill:url(#SVGID_32_);}
	.st32{fill:url(#SVGID_33_);}
	.st33{fill:url(#SVGID_34_);}
	.st34{fill:url(#SVGID_35_);}
	.st35{fill:url(#SVGID_36_);}
	.st36{fill:url(#SVGID_37_);}
	.st37{fill:url(#SVGID_38_);}
	.st38{fill:url(#SVGID_39_);}
	.st39{fill:url(#SVGID_40_);}
	.st40{fill:url(#SVGID_41_);}
	.st41{fill:url(#SVGID_42_);}
	.st42{fill:url(#SVGID_43_);}
	.st43{fill:url(#SVGID_44_);}
	.st44{fill:url(#SVGID_45_);}
	.st45{fill:url(#SVGID_46_);}
	.st46{fill:url(#SVGID_47_);}
	.st47{fill:url(#SVGID_48_);}
	.st48{fill:url(#SVGID_49_);}
	.st49{fill:url(#SVGID_50_);}
	.st50{fill:url(#SVGID_51_);}
	.st51{fill:url(#SVGID_52_);}
</style>
<linearGradient id="SVGID_1_" gradientUnits="userSpaceOnUse" x1="193" y1="822" x2="193" y2="2" gradientTransform="matrix(1 0 0 -1 0 822)">
	<stop  offset="0" style="stop-color:#FF008E"/>
	<stop  offset="1" style="stop-color:#FFCD1E"/>
</linearGradient>
<rect class="st0" width="386" height="820"/>
<g>
	<defs>
		<rect id="SVGID_2_" width="386" height="820"/>
	</defs>
	<clipPath id="SVGID_3_">
		<use xlink:href="#SVGID_2_"  style="overflow:visible;"/>
	</clipPath>
	<defs>
		<filter id="Adobe_OpacityMaskFilter" filterUnits="userSpaceOnUse" x="0" y="-46.1" width="487.9" height="912.2">
			<feColorMatrix  type="matrix" values="1 0 0 0 0  0 1 0 0 0  0 0 1 0 0  0 0 0 1 0"/>
		</filter>
	</defs>
	<mask maskUnits="userSpaceOnUse" x="0" y="-46.1" width="487.9" height="912.2" id="mask0_61340:2780_1_">
		
			<linearGradient id="SVGID_4_" gradientUnits="userSpaceOnUse" x1="488" y1="822" x2="488" y2="2" gradientTransform="matrix(1 0 0 -1 0 822)">
			<stop  offset="0" style="stop-color:#FF008E"/>
			<stop  offset="1" style="stop-color:#FFCD1E"/>
		</linearGradient>
		<rect class="st1" width="976" height="820"/>
	</mask>
	<g class="st2">
		<g class="st3">
			
				<linearGradient id="SVGID_5_" gradientUnits="userSpaceOnUse" x1="90.2068" y1="432.2614" x2="29.4622" y2="535.8884" gradientTransform="matrix(1 0 0 -1 0 822)">
				<stop  offset="0" style="stop-color:#8257E5"/>
				<stop  offset="1" style="stop-color:#FF008E;stop-opacity:0"/>
			</linearGradient>
			<path class="st4" d="M0,304.8V375l61,35.1l61-35.1v-70.2l-61-35.1L0,304.8z"/>
			
				<linearGradient id="SVGID_6_" gradientUnits="userSpaceOnUse" x1="90.2063" y1="502.4901" x2="29.4618" y2="606.1171" gradientTransform="matrix(1 0 0 -1 0 822)">
				<stop  offset="0" style="stop-color:#8257E5"/>
				<stop  offset="1" style="stop-color:#FF008E;stop-opacity:0"/>
			</linearGradient>
			<path class="st5" d="M0,234.5v70.2l61,35.1l61-35.1v-70.2l-61-35.1L0,234.5z"/>
			
				<linearGradient id="SVGID_7_" gradientUnits="userSpaceOnUse" x1="59.9699" y1="624.8427" x2="181.7566" y2="551.3766" gradientTransform="matrix(1 0 0 -1 0 822)">
				<stop  offset="0" style="stop-color:#FF008E;stop-opacity:0"/>
				<stop  offset="1" style="stop-color:#FFCD1E"/>
			</linearGradient>
			<path class="st6" d="M182.9,199.4v70.2l-61,35.1l-61-35.1v-70.2l61-35.1L182.9,199.4z"/>
			
				<linearGradient id="SVGID_8_" gradientUnits="userSpaceOnUse" x1="244.9118" y1="444.7361" x2="123.1259" y2="518.2021" gradientTransform="matrix(1 0 0 -1 0 822)">
				<stop  offset="0" style="stop-color:#FF008E;stop-opacity:0"/>
				<stop  offset="1" style="stop-color:#FFCD1E"/>
			</linearGradient>
			<path class="st7" d="M122,375v-70.2l61-35.1l61,35.1V375l-61,35.1L122,375z"/>
			
				<linearGradient id="SVGID_9_" gradientUnits="userSpaceOnUse" x1="153.6994" y1="502.4898" x2="214.4433" y2="606.1168" gradientTransform="matrix(1 0 0 -1 0 822)">
				<stop  offset="0" style="stop-color:#8257E5"/>
				<stop  offset="1" style="stop-color:#FF008E;stop-opacity:0"/>
			</linearGradient>
			<path class="st8" d="M243.9,234.5v70.2l-61,35.1l-61-35.1v-70.2l61-35.1L243.9,234.5z"/>
			
				<linearGradient id="SVGID_10_" gradientUnits="userSpaceOnUse" x1="92.7231" y1="496.86" x2="153.4671" y2="393.233" gradientTransform="matrix(1 0 0 -1 0 822)">
				<stop  offset="0" style="stop-color:#8257E5"/>
				<stop  offset="1" style="stop-color:#FF008E;stop-opacity:0"/>
			</linearGradient>
			<path class="st9" d="M182.9,410.1v-70.2l-61-35.1l-61,35.1v70.2l61,35.1L182.9,410.1z"/>
		</g>
		<g class="st3">
			
				<linearGradient id="SVGID_11_" gradientUnits="userSpaceOnUse" x1="334.2062" y1="432.2623" x2="273.4622" y2="535.8883" gradientTransform="matrix(1 0 0 -1 0 822)">
				<stop  offset="0" style="stop-color:#8257E5"/>
				<stop  offset="1" style="stop-color:#FF008E;stop-opacity:0"/>
			</linearGradient>
			<path class="st10" d="M244,304.8V375l61,35.1l61-35.1v-70.2l-61-35.1L244,304.8z"/>
			
				<linearGradient id="SVGID_12_" gradientUnits="userSpaceOnUse" x1="334.206" y1="502.49" x2="273.462" y2="606.117" gradientTransform="matrix(1 0 0 -1 0 822)">
				<stop  offset="0" style="stop-color:#8257E5"/>
				<stop  offset="1" style="stop-color:#FF008E;stop-opacity:0"/>
			</linearGradient>
			<path class="st11" d="M244,234.5v70.2l61,35.1l61-35.1v-70.2l-61-35.1L244,234.5z"/>
			
				<linearGradient id="SVGID_13_" gradientUnits="userSpaceOnUse" x1="303.9697" y1="624.8429" x2="425.7557" y2="551.3769" gradientTransform="matrix(1 0 0 -1 0 822)">
				<stop  offset="0" style="stop-color:#FF008E;stop-opacity:0"/>
				<stop  offset="1" style="stop-color:#FFCD1E"/>
			</linearGradient>
			<path class="st12" d="M426.9,199.4v70.2l-61,35.1l-61-35.1v-70.2l61-35.1L426.9,199.4z"/>
			
				<linearGradient id="SVGID_14_" gradientUnits="userSpaceOnUse" x1="488.9119" y1="444.7361" x2="367.1259" y2="518.2021" gradientTransform="matrix(1 0 0 -1 0 822)">
				<stop  offset="0" style="stop-color:#FF008E;stop-opacity:0"/>
				<stop  offset="1" style="stop-color:#FFCD1E"/>
			</linearGradient>
			<path class="st13" d="M366,375v-70.2l61-35.1l61,35.1V375l-61,35.1L366,375z"/>
			
				<linearGradient id="SVGID_15_" gradientUnits="userSpaceOnUse" x1="397.6993" y1="502.4898" x2="458.4434" y2="606.1168" gradientTransform="matrix(1 0 0 -1 0 822)">
				<stop  offset="0" style="stop-color:#8257E5"/>
				<stop  offset="1" style="stop-color:#FF008E;stop-opacity:0"/>
			</linearGradient>
			<path class="st14" d="M487.9,234.5v70.2l-61,35.1l-61-35.1v-70.2l61-35.1L487.9,234.5z"/>
			
				<linearGradient id="SVGID_16_" gradientUnits="userSpaceOnUse" x1="336.7225" y1="496.86" x2="397.4675" y2="393.233" gradientTransform="matrix(1 0 0 -1 0 822)">
				<stop  offset="0" style="stop-color:#8257E5"/>
				<stop  offset="1" style="stop-color:#FF008E;stop-opacity:0"/>
			</linearGradient>
			<path class="st15" d="M426.9,410.1v-70.2l-61-35.1l-61,35.1v70.2l61,35.1L426.9,410.1z"/>
		</g>
		<g class="st3">
			
				<linearGradient id="SVGID_17_" gradientUnits="userSpaceOnUse" x1="90.2063" y1="221.8171" x2="29.4618" y2="325.4441" gradientTransform="matrix(1 0 0 -1 0 822)">
				<stop  offset="0" style="stop-color:#8257E5"/>
				<stop  offset="1" style="stop-color:#FF008E;stop-opacity:0"/>
			</linearGradient>
			<path class="st16" d="M0,515.2v70.2l61,35.1l61-35.1v-70.2l-61-35.1L0,515.2z"/>
			
				<linearGradient id="SVGID_18_" gradientUnits="userSpaceOnUse" x1="90.2063" y1="292.0451" x2="29.4618" y2="395.6721" gradientTransform="matrix(1 0 0 -1 0 822)">
				<stop  offset="0" style="stop-color:#8257E5"/>
				<stop  offset="1" style="stop-color:#FF008E;stop-opacity:0"/>
			</linearGradient>
			<path class="st17" d="M0,445v70.2l61,35.1l61-35.1V445l-61-35.1L0,445z"/>
			
				<linearGradient id="SVGID_19_" gradientUnits="userSpaceOnUse" x1="59.9697" y1="414.3983" x2="181.7564" y2="340.9313" gradientTransform="matrix(1 0 0 -1 0 822)">
				<stop  offset="0" style="stop-color:#FF008E;stop-opacity:0"/>
				<stop  offset="1" style="stop-color:#FFCD1E"/>
			</linearGradient>
			<path class="st18" d="M182.9,409.9v70.2l-61,35.1l-61-35.1v-70.2l61-35.1L182.9,409.9z"/>
			
				<linearGradient id="SVGID_20_" gradientUnits="userSpaceOnUse" x1="244.9116" y1="234.2907" x2="123.1256" y2="307.7577" gradientTransform="matrix(1 0 0 -1 0 822)">
				<stop  offset="0" style="stop-color:#FF008E;stop-opacity:0"/>
				<stop  offset="1" style="stop-color:#FFCD1E"/>
			</linearGradient>
			<path class="st19" d="M122,585.4v-70.2l61-35.1l61,35.1v70.2l-61,35.1L122,585.4z"/>
			
				<linearGradient id="SVGID_21_" gradientUnits="userSpaceOnUse" x1="153.6994" y1="292.0448" x2="214.4434" y2="395.6718" gradientTransform="matrix(1 0 0 -1 0 822)">
				<stop  offset="0" style="stop-color:#8257E5"/>
				<stop  offset="1" style="stop-color:#FF008E;stop-opacity:0"/>
			</linearGradient>
			<path class="st20" d="M243.9,445v70.2l-61,35.1l-61-35.1V445l61-35.1L243.9,445z"/>
			
				<linearGradient id="SVGID_22_" gradientUnits="userSpaceOnUse" x1="92.723" y1="286.4148" x2="153.467" y2="182.7888" gradientTransform="matrix(1 0 0 -1 0 822)">
				<stop  offset="0" style="stop-color:#8257E5"/>
				<stop  offset="1" style="stop-color:#FF008E;stop-opacity:0"/>
			</linearGradient>
			<path class="st21" d="M182.9,620.6v-70.2l-61-35.1l-61,35.1v70.2l61,35.1L182.9,620.6z"/>
		</g>
		<g class="st3">
			
				<linearGradient id="SVGID_23_" gradientUnits="userSpaceOnUse" x1="334.206" y1="221.817" x2="273.462" y2="325.444" gradientTransform="matrix(1 0 0 -1 0 822)">
				<stop  offset="0" style="stop-color:#8257E5"/>
				<stop  offset="1" style="stop-color:#FF008E;stop-opacity:0"/>
			</linearGradient>
			<path class="st22" d="M244,515.2v70.2l61,35.1l61-35.1v-70.2l-61-35.1L244,515.2z"/>
			
				<linearGradient id="SVGID_24_" gradientUnits="userSpaceOnUse" x1="334.206" y1="292.045" x2="273.462" y2="395.672" gradientTransform="matrix(1 0 0 -1 0 822)">
				<stop  offset="0" style="stop-color:#8257E5"/>
				<stop  offset="1" style="stop-color:#FF008E;stop-opacity:0"/>
			</linearGradient>
			<path class="st23" d="M244,445v70.2l61,35.1l61-35.1V445l-61-35.1L244,445z"/>
			
				<linearGradient id="SVGID_25_" gradientUnits="userSpaceOnUse" x1="303.9695" y1="414.3985" x2="425.7555" y2="340.9315" gradientTransform="matrix(1 0 0 -1 0 822)">
				<stop  offset="0" style="stop-color:#FF008E;stop-opacity:0"/>
				<stop  offset="1" style="stop-color:#FFCD1E"/>
			</linearGradient>
			<path class="st24" d="M426.9,409.9v70.2l-61,35.1l-61-35.1v-70.2l61-35.1L426.9,409.9z"/>
			
				<linearGradient id="SVGID_26_" gradientUnits="userSpaceOnUse" x1="488.9116" y1="234.2907" x2="367.1256" y2="307.7577" gradientTransform="matrix(1 0 0 -1 0 822)">
				<stop  offset="0" style="stop-color:#FF008E;stop-opacity:0"/>
				<stop  offset="1" style="stop-color:#FFCD1E"/>
			</linearGradient>
			<path class="st25" d="M366,585.4v-70.2l61-35.1l61,35.1v70.2l-61,35.1L366,585.4z"/>
			
				<linearGradient id="SVGID_27_" gradientUnits="userSpaceOnUse" x1="397.6993" y1="292.0448" x2="458.4434" y2="395.6718" gradientTransform="matrix(1 0 0 -1 0 822)">
				<stop  offset="0" style="stop-color:#8257E5"/>
				<stop  offset="1" style="stop-color:#FF008E;stop-opacity:0"/>
			</linearGradient>
			<path class="st26" d="M487.9,445v70.2l-61,35.1l-61-35.1V445l61-35.1L487.9,445z"/>
			
				<linearGradient id="SVGID_28_" gradientUnits="userSpaceOnUse" x1="336.7225" y1="286.415" x2="397.4675" y2="182.788" gradientTransform="matrix(1 0 0 -1 0 822)">
				<stop  offset="0" style="stop-color:#8257E5"/>
				<stop  offset="1" style="stop-color:#FF008E;stop-opacity:0"/>
			</linearGradient>
			<path class="st27" d="M426.9,620.6v-70.2l-61-35.1l-61,35.1v70.2l61,35.1L426.9,620.6z"/>
		</g>
		<g class="st3">
			
				<linearGradient id="SVGID_29_" gradientUnits="userSpaceOnUse" x1="90.2065" y1="11.3722" x2="29.462" y2="114.9992" gradientTransform="matrix(1 0 0 -1 0 822)">
				<stop  offset="0" style="stop-color:#8257E5"/>
				<stop  offset="1" style="stop-color:#FF008E;stop-opacity:0"/>
			</linearGradient>
			<path class="st28" d="M0,725.7v70.2L61,831l61-35.1v-70.2l-61-35.1L0,725.7z"/>
			
				<linearGradient id="SVGID_30_" gradientUnits="userSpaceOnUse" x1="90.2063" y1="81.6011" x2="29.4618" y2="185.2281" gradientTransform="matrix(1 0 0 -1 0 822)">
				<stop  offset="0" style="stop-color:#8257E5"/>
				<stop  offset="1" style="stop-color:#FF008E;stop-opacity:0"/>
			</linearGradient>
			<path class="st29" d="M0,655.4v70.2l61,35.1l61-35.1v-70.2l-61-35.1L0,655.4z"/>
			
				<linearGradient id="SVGID_31_" gradientUnits="userSpaceOnUse" x1="59.9695" y1="203.9529" x2="181.7561" y2="130.4869" gradientTransform="matrix(1 0 0 -1 0 822)">
				<stop  offset="0" style="stop-color:#FF008E;stop-opacity:0"/>
				<stop  offset="1" style="stop-color:#FFCD1E"/>
			</linearGradient>
			<path class="st30" d="M182.9,620.3v70.2l-61,35.1l-61-35.1v-70.2l61-35.1L182.9,620.3z"/>
			
				<linearGradient id="SVGID_32_" gradientUnits="userSpaceOnUse" x1="244.9116" y1="23.8467" x2="123.1256" y2="97.3127" gradientTransform="matrix(1 0 0 -1 0 822)">
				<stop  offset="0" style="stop-color:#FF008E;stop-opacity:0"/>
				<stop  offset="1" style="stop-color:#FFCD1E"/>
			</linearGradient>
			<path class="st31" d="M122,795.9v-70.2l61-35.1l61,35.1v70.2l-61,35.1L122,795.9z"/>
			
				<linearGradient id="SVGID_33_" gradientUnits="userSpaceOnUse" x1="153.6993" y1="81.6008" x2="214.4433" y2="185.2278" gradientTransform="matrix(1 0 0 -1 0 822)">
				<stop  offset="0" style="stop-color:#8257E5"/>
				<stop  offset="1" style="stop-color:#FF008E;stop-opacity:0"/>
			</linearGradient>
			<path class="st32" d="M243.9,655.4v70.2l-61,35.1l-61-35.1v-70.2l61-35.1L243.9,655.4z"/>
			
				<linearGradient id="SVGID_34_" gradientUnits="userSpaceOnUse" x1="92.7231" y1="75.971" x2="153.4671" y2="-27.656" gradientTransform="matrix(1 0 0 -1 0 822)">
				<stop  offset="0" style="stop-color:#8257E5"/>
				<stop  offset="1" style="stop-color:#FF008E;stop-opacity:0"/>
			</linearGradient>
			<path class="st33" d="M182.9,831v-70.2l-61-35.1l-61,35.1V831l61,35.1L182.9,831z"/>
		</g>
		<g class="st3">
			
				<linearGradient id="SVGID_35_" gradientUnits="userSpaceOnUse" x1="334.2061" y1="11.372" x2="273.462" y2="114.999" gradientTransform="matrix(1 0 0 -1 0 822)">
				<stop  offset="0" style="stop-color:#8257E5"/>
				<stop  offset="1" style="stop-color:#FF008E;stop-opacity:0"/>
			</linearGradient>
			<path class="st34" d="M244,725.7v70.2l61,35.1l61-35.1v-70.2l-61-35.1L244,725.7z"/>
			
				<linearGradient id="SVGID_36_" gradientUnits="userSpaceOnUse" x1="334.2061" y1="81.601" x2="273.462" y2="185.228" gradientTransform="matrix(1 0 0 -1 0 822)">
				<stop  offset="0" style="stop-color:#8257E5"/>
				<stop  offset="1" style="stop-color:#FF008E;stop-opacity:0"/>
			</linearGradient>
			<path class="st35" d="M244,655.4v70.2l61,35.1l61-35.1v-70.2l-61-35.1L244,655.4z"/>
			
				<linearGradient id="SVGID_37_" gradientUnits="userSpaceOnUse" x1="303.9693" y1="203.9532" x2="425.7553" y2="130.4872" gradientTransform="matrix(1 0 0 -1 0 822)">
				<stop  offset="0" style="stop-color:#FF008E;stop-opacity:0"/>
				<stop  offset="1" style="stop-color:#FFCD1E"/>
			</linearGradient>
			<path class="st36" d="M426.9,620.3v70.2l-61,35.1l-61-35.1v-70.2l61-35.1L426.9,620.3z"/>
			
				<linearGradient id="SVGID_38_" gradientUnits="userSpaceOnUse" x1="488.9116" y1="23.8467" x2="367.1256" y2="97.3127" gradientTransform="matrix(1 0 0 -1 0 822)">
				<stop  offset="0" style="stop-color:#FF008E;stop-opacity:0"/>
				<stop  offset="1" style="stop-color:#FFCD1E"/>
			</linearGradient>
			<path class="st37" d="M366,795.9v-70.2l61-35.1l61,35.1v70.2l-61,35.1L366,795.9z"/>
			
				<linearGradient id="SVGID_39_" gradientUnits="userSpaceOnUse" x1="397.6993" y1="81.6008" x2="458.4434" y2="185.2278" gradientTransform="matrix(1 0 0 -1 0 822)">
				<stop  offset="0" style="stop-color:#8257E5"/>
				<stop  offset="1" style="stop-color:#FF008E;stop-opacity:0"/>
			</linearGradient>
			<path class="st38" d="M487.9,655.4v70.2l-61,35.1l-61-35.1v-70.2l61-35.1L487.9,655.4z"/>
			
				<linearGradient id="SVGID_40_" gradientUnits="userSpaceOnUse" x1="336.7225" y1="75.971" x2="397.4675" y2="-27.656" gradientTransform="matrix(1 0 0 -1 0 822)">
				<stop  offset="0" style="stop-color:#8257E5"/>
				<stop  offset="1" style="stop-color:#FF008E;stop-opacity:0"/>
			</linearGradient>
			<path class="st39" d="M426.9,831v-70.2l-61-35.1l-61,35.1V831l61,35.1L426.9,831z"/>
		</g>
		<g class="st3">
			
				<linearGradient id="SVGID_41_" gradientUnits="userSpaceOnUse" x1="90.2063" y1="642.7062" x2="29.4618" y2="746.3331" gradientTransform="matrix(1 0 0 -1 0 822)">
				<stop  offset="0" style="stop-color:#8257E5"/>
				<stop  offset="1" style="stop-color:#FF008E;stop-opacity:0"/>
			</linearGradient>
			<path class="st40" d="M0,94.3v70.2l61,35.1l61-35.1V94.3L61,59.2L0,94.3z"/>
			
				<linearGradient id="SVGID_42_" gradientUnits="userSpaceOnUse" x1="90.2065" y1="712.9342" x2="29.462" y2="816.5615" gradientTransform="matrix(1 0 0 -1 0 822)">
				<stop  offset="0" style="stop-color:#8257E5"/>
				<stop  offset="1" style="stop-color:#FF008E;stop-opacity:0"/>
			</linearGradient>
			<path class="st41" d="M0,24.1v70.2l61,35.1l61-35.1V24.1L61-11L0,24.1z"/>
			
				<linearGradient id="SVGID_43_" gradientUnits="userSpaceOnUse" x1="59.9697" y1="835.2871" x2="181.7564" y2="761.8208" gradientTransform="matrix(1 0 0 -1 0 822)">
				<stop  offset="0" style="stop-color:#FF008E;stop-opacity:0"/>
				<stop  offset="1" style="stop-color:#FFCD1E"/>
			</linearGradient>
			<path class="st42" d="M182.9-11v70.2l-61,35.1L61,59.2V-11l61-35.1L182.9-11z"/>
			
				<linearGradient id="SVGID_44_" gradientUnits="userSpaceOnUse" x1="244.9115" y1="655.1804" x2="123.1255" y2="728.6464" gradientTransform="matrix(1 0 0 -1 0 822)">
				<stop  offset="0" style="stop-color:#FF008E;stop-opacity:0"/>
				<stop  offset="1" style="stop-color:#FFCD1E"/>
			</linearGradient>
			<path class="st43" d="M122,164.5V94.3l61-35.1l61,35.1v70.2l-61,35.1L122,164.5z"/>
			
				<linearGradient id="SVGID_45_" gradientUnits="userSpaceOnUse" x1="153.6992" y1="712.9339" x2="214.4432" y2="816.5612" gradientTransform="matrix(1 0 0 -1 0 822)">
				<stop  offset="0" style="stop-color:#8257E5"/>
				<stop  offset="1" style="stop-color:#FF008E;stop-opacity:0"/>
			</linearGradient>
			<path class="st44" d="M243.9,24.1v70.2l-61,35.1l-61-35.1V24.1l61-35.1L243.9,24.1z"/>
			
				<linearGradient id="SVGID_46_" gradientUnits="userSpaceOnUse" x1="92.723" y1="707.3045" x2="153.467" y2="603.6779" gradientTransform="matrix(1 0 0 -1 0 822)">
				<stop  offset="0" style="stop-color:#8257E5"/>
				<stop  offset="1" style="stop-color:#FF008E;stop-opacity:0"/>
			</linearGradient>
			<path class="st45" d="M182.9,199.7v-70.2l-61-35.1l-61,35.1v70.2l61,35.1L182.9,199.7z"/>
		</g>
		<g class="st3">
			
				<linearGradient id="SVGID_47_" gradientUnits="userSpaceOnUse" x1="334.2061" y1="642.7061" x2="273.462" y2="746.3329" gradientTransform="matrix(1 0 0 -1 0 822)">
				<stop  offset="0" style="stop-color:#8257E5"/>
				<stop  offset="1" style="stop-color:#FF008E;stop-opacity:0"/>
			</linearGradient>
			<path class="st46" d="M244,94.3v70.2l61,35.1l61-35.1V94.3l-61-35.1L244,94.3z"/>
			
				<linearGradient id="SVGID_48_" gradientUnits="userSpaceOnUse" x1="334.2062" y1="712.9341" x2="273.4622" y2="816.5614" gradientTransform="matrix(1 0 0 -1 0 822)">
				<stop  offset="0" style="stop-color:#8257E5"/>
				<stop  offset="1" style="stop-color:#FF008E;stop-opacity:0"/>
			</linearGradient>
			<path class="st47" d="M244,24.1v70.2l61,35.1l61-35.1V24.1L305-11L244,24.1z"/>
			
				<linearGradient id="SVGID_49_" gradientUnits="userSpaceOnUse" x1="303.9695" y1="835.2874" x2="425.7555" y2="761.821" gradientTransform="matrix(1 0 0 -1 0 822)">
				<stop  offset="0" style="stop-color:#FF008E;stop-opacity:0"/>
				<stop  offset="1" style="stop-color:#FFCD1E"/>
			</linearGradient>
			<path class="st48" d="M426.9-11v70.2l-61,35.1l-61-35.1V-11l61-35.1L426.9-11z"/>
			
				<linearGradient id="SVGID_50_" gradientUnits="userSpaceOnUse" x1="488.9115" y1="655.1804" x2="367.1255" y2="728.6464" gradientTransform="matrix(1 0 0 -1 0 822)">
				<stop  offset="0" style="stop-color:#FF008E;stop-opacity:0"/>
				<stop  offset="1" style="stop-color:#FFCD1E"/>
			</linearGradient>
			<path class="st49" d="M366,164.5V94.3l61-35.1l61,35.1v70.2l-61,35.1L366,164.5z"/>
			
				<linearGradient id="SVGID_51_" gradientUnits="userSpaceOnUse" x1="397.6992" y1="712.9339" x2="458.4432" y2="816.5612" gradientTransform="matrix(1 0 0 -1 0 822)">
				<stop  offset="0" style="stop-color:#8257E5"/>
				<stop  offset="1" style="stop-color:#FF008E;stop-opacity:0"/>
			</linearGradient>
			<path class="st50" d="M487.9,24.1v70.2l-61,35.1l-61-35.1V24.1l61-35.1L487.9,24.1z"/>
			
				<linearGradient id="SVGID_52_" gradientUnits="userSpaceOnUse" x1="336.7224" y1="707.3044" x2="397.4674" y2="603.6779" gradientTransform="matrix(1 0 0 -1 0 822)">
				<stop  offset="0" style="stop-color:#8257E5"/>
				<stop  offset="1" style="stop-color:#FF008E;stop-opacity:0"/>
			</linearGradient>
			<path class="st51" d="M426.9,199.7v-70.2l-61-35.1l-61,35.1v70.2l61,35.1L426.9,199.7z"/>
		</g>
	</g>
</g>
</svg>
