<?xml version="1.0" encoding="utf-8"?>
<!-- Generator: Adobe Illustrator 22.0.0, SVG Export Plug-In . SVG Version: 6.00 Build 0)  -->
<svg version="1.1" id="Layer_1" xmlns="http://www.w3.org/2000/svg" xmlns:xlink="http://www.w3.org/1999/xlink" x="0px" y="0px"
	 viewBox="0 0 280 24" style="enable-background:new 0 0 280 24;" xml:space="preserve">
<style type="text/css">
	.st0{fill:url(#SVGID_1_);}
	.st1{fill:#FFFFFF;}
</style>
<linearGradient id="SVGID_1_" gradientUnits="userSpaceOnUse" x1="55.5499" y1="57.6391" x2="106.366" y2="-29.9955" gradientTransform="matrix(1 0 0 -1 0 26)">
	<stop  offset="0" style="stop-color:#FF008E"/>
	<stop  offset="1" style="stop-color:#FFCD1E"/>
</linearGradient>
<path class="st0" d="M47.6,12c0,2.4-0.7,4.7-2,6.6c-1.3,2-3.2,3.5-5.5,4.4c-2.2,0.9-4.7,1.1-7,0.7c-2.4-0.5-4.5-1.6-6.2-3.3
	c-1.7-1.7-2.9-3.8-3.3-6.1c-0.1-0.7-0.2-1.3-0.2-2c-0.1,2.9-1.3,5.7-3.4,7.7c-2.2,2.1-5.1,3.3-8.2,3.3H0V0.6h11.6
	c3.1,0,6.1,1.2,8.2,3.3c2.1,2.1,3.3,4.8,3.4,7.8c0-1.4,0.4-2.9,0.9-4.2c0.9-2.2,2.5-4.1,4.5-5.4c2-1.3,4.4-2,6.8-2
	c3.2,0,6.3,1.3,8.6,3.5C46.3,5.8,47.6,8.8,47.6,12z M78.1,0.6l-3.3,12l-3.3-12h-6.1l-3.3,12l-3.3-12h-9.4l8.3,22.9h7.8l3-9.3l3,9.3
	h7.8l8.2-22.9H78.1z M112.1,0.6v22.9h-8.8v-8.2h-5.5v8.2h-8.8V0.6h8.8v8.2h5.5V0.6H112.1z M115.4,0.6v22.9h8.8V0.6H115.4z
	 M143.5,16.9v6.5h-16V0.6h8.8v16.4L143.5,16.9z M154.5,9.3V7.1l7.2,0V0.6h-16v22.9h16v-6.5h-7.2v-2.2h5.5V9.3H154.5z"/>
<path class="st1" d="M189.6,0.7l-3.1-0.5c-0.1,0-0.2,0-0.2,0.1L185,2c-0.1,0.1-0.1,0.2-0.1,0.4c0,0.1-0.1,0.3-0.2,0.2l-1-0.3
	c-0.2,0-0.4,0-0.5,0.2l-4.3,5.4C178.8,8,178.7,8,178.5,8l-1.6-0.8c-0.1,0-0.2-0.1-0.2-0.1c-0.1,0-0.2,0-0.2,0.1l-0.9,0.6
	c-0.1,0-0.2,0.1-0.2,0.1c-0.1,0-0.2,0-0.2-0.1l-0.4-0.2c-0.1,0-0.1,0-0.2,0c-0.1,0-0.1,0-0.2,0c-0.1,0-0.1,0.1-0.2,0.1
	c0,0-0.1,0.1-0.1,0.2l-0.3,1.3c0,0.1,0,0.3,0,0.4c0,0.1,0.1,0.3,0.3,0.3l0.8,0.5l2,1.2l1,0.6c0.1,0.1,0.3,0.1,0.4,0.1
	c0.2,0,0.3-0.1,0.4-0.2l1.6-1.4c0.1-0.1,0.3-0.1,0.5-0.1l0.5,0.3c0.2,0.1,0.4,0.1,0.5-0.1l0.9-0.7c0.1-0.1,0.1-0.1,0.2-0.1
	s0.2,0,0.3,0l1.2,0.6c0.2,0.1,0.4,0,0.6-0.1l0.6-0.7l4.3-5.4c0.2-0.3,0.1-0.7-0.3-0.7l-1-0.2c-0.2,0-0.3-0.3-0.2-0.5l1.5-1.8
	C189.9,1,189.8,0.7,189.6,0.7z"/>
<path class="st1" d="M175.4,11.7c-0.1-0.1-0.2,0-0.2,0.1l0.5,1.2v0.3l-0.4,1.6c0,0.1,0,0.1,0,0.1s0,0.1,0.1,0.1l1.1,0.8
	c0.1,0,0.1,0.1,0.2,0.1c0.1,0,0.1,0,0.2-0.1l1.2-1c0,0,0.1-0.1,0.1-0.1c0.1,0,0.1,0,0.2,0l1.3-0.2c0.1,0,0.1-0.1,0-0.2L175.4,11.7z"
	/>
<path class="st1" d="M175,15.7C174.9,15.7,174.9,15.6,175,15.7c-0.1-0.1-0.1-0.1-0.1-0.1c0,0-0.1,0-0.1,0c0,0,0,0-0.1,0.1l-1,0.5
	c0,0-0.1,0-0.1,0c0,0,0,0,0,0.1l-2.1,5h0.1l0.5-0.2v0.1l-1.5,2.4c0,0.1,0,0.1,0.1,0.1l5.3-5.3c0.1,0,0.1-0.1,0.1-0.2l0.1-1.4
	c0-0.1,0-0.2-0.1-0.2L175,15.7z"/>
<path class="st1" d="M216.6,16.9v6.5h-21.5c0,0,10.2-11,11.6-13.6c1.1-2-0.1-3.3-1.1-3.3c-1,0-2.2,0.6-2.2,3.3l-8.2-0.5
	c0-5.1,3.6-9.3,10.4-9.3c6.5,0,10.5,3.4,10.5,8.2c0,3-2.6,6.4-5.5,8.7L216.6,16.9z"/>
<path class="st1" d="M240.9,12c0,6.6-4.5,12-11,12s-11-5.4-11-12c0-6.6,4.4-12,11-12S240.9,5.3,240.9,12z"/>
<path class="st1" d="M264.6,16.9v6.5h-21.5c0,0,10.2-11,11.6-13.6c1.1-2-0.1-3.3-1.1-3.3c-1,0-2.2,0.6-2.2,3.3l-8.2-0.5
	c0-5.1,3.6-9.3,10.4-9.3C260,0,264,3.4,264,8.2c0,3-2.6,6.4-5.5,8.7L264.6,16.9z"/>
<path class="st1" d="M280,0v23.4h-8.8V8.2l-3.9,0.5V2.1L280,0z"/>
</svg>
